{"title":"Upside Down 2012 BRRip XViD UNiQUE","uid":7936179,"size":1509185875,"categoryP":"video","categoryS":"movies","magnet":"?xt=urn:btih:bd65c714a46188124304f73abb589a5ab0c449af&amp;dn=Upside+Down+2012+BRRip+XViD+UNiQUE&amp;tr=udp%3A%2F%2Ftracker.openbittorrent.com%3A80&amp;tr=udp%3A%2F%2Fopen.demonii.com%3A1337&amp;tr=udp%3A%2F%2Ftracker.coppersurfer.tk%3A6969&amp;tr=udp%3A%2F%2Fexodus.desync.com%3A6969","seeders":7,"leechers":1,"uploader":"juggs99","files":3,"time":1355865219,"description":" &lt;a href=&quot;http://www.shotpix.com/images/54701082172672351863.jpg&quot; rel=&quot;nofollow&quot; target=&quot;_NEW&quot;&gt;http://www.shotpix.com/images/54701082172672351863.jpg&lt;/a&gt;\n\n\n\nooooo ooo ooooo ooo o8o .oooooo. ooooo ooo oooooooooooo\n`888' `8' `888b. `8' `&quot;' d8P' `Y8b `888' `8' `888' `8\n888 8 8 `88b. 8 oooo 888 888 888 8 888\n888 8 8 `88b. 8 `888 888 888 888 8 888oooo8\n888 8 8 `88b.8 888 888 888 888 8 888 &quot;\n`88. .8' 8 `888 888 `88b d88b `88. .8' 888 o\n`YbodP' o8o `8 o888o `Y8bood8P'Ybd' `YbodP' o888ooooood8\n\n\n\n\n.........why be the same as everyone else when YOU can be UNiQUE.........\n\n\n\n\n\n\n\nFormat : AVI\nFormat/Info : Audio Video Interleave\nFile size : 1.40 GiB\nDuration : 1h 47mn\nOverall bit rate : 1 853 Kbps\nWriting application : VirtualDubMod 1.5.10.3 | www.virtualdub-fr.org || (build 2550/release)\nWriting library : VirtualDubMod build 2550/release\n\nVideo\nID : 0\nFormat : MPEG-4 Visual\nFormat profile : Advanced Simple@L5\nFormat settings, BVOP : 2\nFormat settings, QPel : No\nFormat settings, GMC : No warppoints\nFormat settings, Matrix : Default (H.263)\nMuxing mode : Packed bitstream\nCodec ID : XVID\nCodec ID/Hint : XviD\nDuration : 1h 47mn\nBit rate : 1 715 Kbps\nWidth : 720 pixels\nHeight : 304 pixels\nDisplay aspect ratio : 2.35:1\nFrame rate : 23.976 fps\nColor space : YUV\nChroma subsampling : 4:2:0\nBit depth : 8 bits\nScan type : Progressive\nCompression mode : Lossy\nBits/(Pixel*Frame) : 0.327\nStream size : 1.29 GiB (93%)\nWriting library : XviD 64\n\nAudio\nID : 1\nFormat : AC-3\nFormat/Info : Audio Coding 3\nMode extension : CM (complete main)\nCodec ID : 2000\nDuration : 1h 47mn\nBit rate mode : Constant\nBit rate : 128 Kbps\nChannel(s) : 2 channels\nChannel positions : Front: L R\nSampling rate : 48.0 KHz\nBit depth : 16 bits\nCompression mode : Lossy\nStream size : 98.7 MiB (7%)\nAlignment : Split accross interleaves\nInterleave, duration : 42 ms (1.00 video frame)\nInterleave, preload duration : 500 ms\n\n\n\n\n\n\n\n\n\n\n\nSource Used ...............JYK 720p.............................Thanks\n\n\n &lt;a href=&quot;\nhttp://www.shotpix.com/images/52025342477979556345.png&quot; rel=&quot;nofollow&quot; target=&quot;_NEW&quot;&gt;\nhttp://www.shotpix.com/images/52025342477979556345.png&lt;/a&gt; &lt;a href=&quot;\nhttp://www.shotpix.com/images/47643100271748166565.png&quot; rel=&quot;nofollow&quot; target=&quot;_NEW&quot;&gt;\nhttp://www.shotpix.com/images/47643100271748166565.png&lt;/a&gt; &lt;a href=&quot;\nhttp://www.shotpix.com/images/13190459985079179708.png&quot; rel=&quot;nofollow&quot; target=&quot;_NEW&quot;&gt;\nhttp://www.shotpix.com/images/13190459985079179708.png&lt;/a&gt;","torrent":{"xt":"urn:btih:bd65c714a46188124304f73abb589a5ab0c449af","amp;dn":"Upside+Down+2012+BRRip+XViD+UNiQUE","amp;tr":["udp%3A%2F%2Ftracker.openbittorrent.com%3A80","udp%3A%2F%2Fopen.demonii.com%3A1337","udp%3A%2F%2Ftracker.coppersurfer.tk%3A6969","udp%3A%2F%2Fexodus.desync.com%3A6969"],"infoHash":"bd65c714a46188124304f73abb589a5ab0c449af","infoHashBuffer":{"type":"Buffer","data":[189,101,199,20,164,97,136,18,67,4,247,58,187,88,154,90,176,196,73,175]},"announce":[],"urlList":[]}}